<mxfile host="app.diagrams.net" modified="2023-10-11T14:46:54.104Z" agent="Mozilla/5.0 (Windows NT 10.0; Win64; x64) AppleWebKit/537.36 (KHTML, like Gecko) Chrome/117.0.0.0 Safari/537.36" etag="Qi9dyfwhi01Rc84MEQKb" version="22.0.4" type="device">
  <diagram name="Страница — 1" id="YUm8qyB8BKFqRt-K5jFj">
    <mxGraphModel dx="2580" dy="1148" grid="1" gridSize="10" guides="1" tooltips="1" connect="1" arrows="1" fold="1" page="1" pageScale="1" pageWidth="827" pageHeight="1169" math="0" shadow="0">
      <root>
        <mxCell id="0" />
        <mxCell id="1" parent="0" />
        <mxCell id="lmXnger4jcRCsyg33RG4-57" value="" style="edgeStyle=orthogonalEdgeStyle;rounded=0;orthogonalLoop=1;jettySize=auto;html=1;" edge="1" parent="1" source="lmXnger4jcRCsyg33RG4-48" target="lmXnger4jcRCsyg33RG4-49">
          <mxGeometry relative="1" as="geometry" />
        </mxCell>
        <mxCell id="lmXnger4jcRCsyg33RG4-59" value="Данные для регистрации" style="edgeLabel;html=1;align=center;verticalAlign=middle;resizable=0;points=[];" vertex="1" connectable="0" parent="lmXnger4jcRCsyg33RG4-57">
          <mxGeometry x="-0.0292" y="1" relative="1" as="geometry">
            <mxPoint as="offset" />
          </mxGeometry>
        </mxCell>
        <mxCell id="lmXnger4jcRCsyg33RG4-48" value="&lt;font style=&quot;vertical-align: inherit;&quot;&gt;&lt;font style=&quot;vertical-align: inherit;&quot;&gt;Пользователь&lt;/font&gt;&lt;/font&gt;" style="whiteSpace=wrap;html=1;align=center;" vertex="1" parent="1">
          <mxGeometry x="230" y="470" width="150" height="60" as="geometry" />
        </mxCell>
        <mxCell id="lmXnger4jcRCsyg33RG4-62" value="" style="edgeStyle=orthogonalEdgeStyle;rounded=0;orthogonalLoop=1;jettySize=auto;html=1;" edge="1" parent="1" source="lmXnger4jcRCsyg33RG4-49" target="lmXnger4jcRCsyg33RG4-50">
          <mxGeometry relative="1" as="geometry" />
        </mxCell>
        <mxCell id="lmXnger4jcRCsyg33RG4-63" value="Проверка и сохранение данных" style="edgeLabel;html=1;align=center;verticalAlign=middle;resizable=0;points=[];" vertex="1" connectable="0" parent="lmXnger4jcRCsyg33RG4-62">
          <mxGeometry x="-0.0858" relative="1" as="geometry">
            <mxPoint as="offset" />
          </mxGeometry>
        </mxCell>
        <mxCell id="lmXnger4jcRCsyg33RG4-49" value="Регистрация&lt;br&gt;Пользователя" style="shape=process;whiteSpace=wrap;html=1;backgroundOutline=1;" vertex="1" parent="1">
          <mxGeometry x="570" y="470" width="160" height="60" as="geometry" />
        </mxCell>
        <mxCell id="lmXnger4jcRCsyg33RG4-50" value="База данных зарегистрированных Пользователей" style="shape=partialRectangle;whiteSpace=wrap;html=1;left=0;right=0;fillColor=none;" vertex="1" parent="1">
          <mxGeometry x="590" y="585" width="120" height="60" as="geometry" />
        </mxCell>
        <mxCell id="lmXnger4jcRCsyg33RG4-60" value="" style="endArrow=classic;html=1;rounded=0;exitX=0;exitY=0.75;exitDx=0;exitDy=0;entryX=0.992;entryY=0.694;entryDx=0;entryDy=0;entryPerimeter=0;" edge="1" parent="1">
          <mxGeometry width="50" height="50" relative="1" as="geometry">
            <mxPoint x="570" y="515" as="sourcePoint" />
            <mxPoint x="378.79999999999995" y="511.64" as="targetPoint" />
          </mxGeometry>
        </mxCell>
        <mxCell id="lmXnger4jcRCsyg33RG4-61" value="Получение доступа в систему" style="edgeLabel;html=1;align=center;verticalAlign=middle;resizable=0;points=[];" vertex="1" connectable="0" parent="lmXnger4jcRCsyg33RG4-60">
          <mxGeometry x="0.0075" relative="1" as="geometry">
            <mxPoint as="offset" />
          </mxGeometry>
        </mxCell>
        <mxCell id="lmXnger4jcRCsyg33RG4-64" value="" style="edgeStyle=orthogonalEdgeStyle;rounded=0;orthogonalLoop=1;jettySize=auto;html=1;entryX=0;entryY=0.5;entryDx=0;entryDy=0;" edge="1" parent="1" source="lmXnger4jcRCsyg33RG4-66" target="lmXnger4jcRCsyg33RG4-94">
          <mxGeometry relative="1" as="geometry">
            <mxPoint x="1150" y="500" as="targetPoint" />
          </mxGeometry>
        </mxCell>
        <mxCell id="lmXnger4jcRCsyg33RG4-65" value="Критерии поиска" style="edgeLabel;html=1;align=center;verticalAlign=middle;resizable=0;points=[];" vertex="1" connectable="0" parent="lmXnger4jcRCsyg33RG4-64">
          <mxGeometry x="-0.0292" y="1" relative="1" as="geometry">
            <mxPoint as="offset" />
          </mxGeometry>
        </mxCell>
        <mxCell id="lmXnger4jcRCsyg33RG4-66" value="&lt;font style=&quot;vertical-align: inherit;&quot;&gt;&lt;font style=&quot;vertical-align: inherit;&quot;&gt;Пользователь&lt;/font&gt;&lt;/font&gt;" style="whiteSpace=wrap;html=1;align=center;" vertex="1" parent="1">
          <mxGeometry x="780" y="470" width="150" height="60" as="geometry" />
        </mxCell>
        <mxCell id="lmXnger4jcRCsyg33RG4-67" value="" style="edgeStyle=orthogonalEdgeStyle;rounded=0;orthogonalLoop=1;jettySize=auto;html=1;" edge="1" parent="1" source="lmXnger4jcRCsyg33RG4-69" target="lmXnger4jcRCsyg33RG4-70">
          <mxGeometry relative="1" as="geometry" />
        </mxCell>
        <mxCell id="lmXnger4jcRCsyg33RG4-68" value="Сохранение данных" style="edgeLabel;html=1;align=center;verticalAlign=middle;resizable=0;points=[];" vertex="1" connectable="0" parent="lmXnger4jcRCsyg33RG4-67">
          <mxGeometry x="-0.0858" relative="1" as="geometry">
            <mxPoint as="offset" />
          </mxGeometry>
        </mxCell>
        <mxCell id="lmXnger4jcRCsyg33RG4-69" value="Добавление в Избранное" style="shape=process;whiteSpace=wrap;html=1;backgroundOutline=1;" vertex="1" parent="1">
          <mxGeometry x="1470" y="470" width="160" height="60" as="geometry" />
        </mxCell>
        <mxCell id="lmXnger4jcRCsyg33RG4-70" value="База данных Избранного Пользователей" style="shape=partialRectangle;whiteSpace=wrap;html=1;left=0;right=0;fillColor=none;" vertex="1" parent="1">
          <mxGeometry x="1490" y="600" width="120" height="60" as="geometry" />
        </mxCell>
        <mxCell id="lmXnger4jcRCsyg33RG4-71" value="" style="endArrow=classic;html=1;rounded=0;entryX=1;entryY=0.75;entryDx=0;entryDy=0;exitX=0;exitY=0.75;exitDx=0;exitDy=0;" edge="1" parent="1" source="lmXnger4jcRCsyg33RG4-94" target="lmXnger4jcRCsyg33RG4-66">
          <mxGeometry width="50" height="50" relative="1" as="geometry">
            <mxPoint x="1170" y="510" as="sourcePoint" />
            <mxPoint x="958.8" y="511.64" as="targetPoint" />
          </mxGeometry>
        </mxCell>
        <mxCell id="lmXnger4jcRCsyg33RG4-72" value="Желаемый контент" style="edgeLabel;html=1;align=center;verticalAlign=middle;resizable=0;points=[];" vertex="1" connectable="0" parent="lmXnger4jcRCsyg33RG4-71">
          <mxGeometry x="0.0075" relative="1" as="geometry">
            <mxPoint as="offset" />
          </mxGeometry>
        </mxCell>
        <mxCell id="lmXnger4jcRCsyg33RG4-73" value="" style="edgeStyle=orthogonalEdgeStyle;rounded=0;orthogonalLoop=1;jettySize=auto;html=1;" edge="1" parent="1" source="lmXnger4jcRCsyg33RG4-75" target="lmXnger4jcRCsyg33RG4-78">
          <mxGeometry relative="1" as="geometry" />
        </mxCell>
        <mxCell id="lmXnger4jcRCsyg33RG4-74" value="Данные для входа" style="edgeLabel;html=1;align=center;verticalAlign=middle;resizable=0;points=[];" vertex="1" connectable="0" parent="lmXnger4jcRCsyg33RG4-73">
          <mxGeometry x="-0.0292" y="1" relative="1" as="geometry">
            <mxPoint as="offset" />
          </mxGeometry>
        </mxCell>
        <mxCell id="lmXnger4jcRCsyg33RG4-75" value="&lt;font style=&quot;vertical-align: inherit;&quot;&gt;&lt;font style=&quot;vertical-align: inherit;&quot;&gt;Пользователь&lt;/font&gt;&lt;/font&gt;" style="whiteSpace=wrap;html=1;align=center;" vertex="1" parent="1">
          <mxGeometry x="190" y="700" width="150" height="60" as="geometry" />
        </mxCell>
        <mxCell id="lmXnger4jcRCsyg33RG4-76" value="" style="edgeStyle=orthogonalEdgeStyle;rounded=0;orthogonalLoop=1;jettySize=auto;html=1;" edge="1" parent="1" source="lmXnger4jcRCsyg33RG4-78" target="lmXnger4jcRCsyg33RG4-79">
          <mxGeometry relative="1" as="geometry" />
        </mxCell>
        <mxCell id="lmXnger4jcRCsyg33RG4-77" value="Валидация данных" style="edgeLabel;html=1;align=center;verticalAlign=middle;resizable=0;points=[];" vertex="1" connectable="0" parent="lmXnger4jcRCsyg33RG4-76">
          <mxGeometry x="-0.0858" relative="1" as="geometry">
            <mxPoint as="offset" />
          </mxGeometry>
        </mxCell>
        <mxCell id="lmXnger4jcRCsyg33RG4-78" value="Вход Пользователя" style="shape=process;whiteSpace=wrap;html=1;backgroundOutline=1;" vertex="1" parent="1">
          <mxGeometry x="570" y="700" width="160" height="60" as="geometry" />
        </mxCell>
        <mxCell id="lmXnger4jcRCsyg33RG4-79" value="База данных&amp;nbsp;" style="shape=partialRectangle;whiteSpace=wrap;html=1;left=0;right=0;fillColor=none;" vertex="1" parent="1">
          <mxGeometry x="590" y="830" width="120" height="60" as="geometry" />
        </mxCell>
        <mxCell id="lmXnger4jcRCsyg33RG4-80" value="" style="endArrow=classic;html=1;rounded=0;exitX=0;exitY=0.75;exitDx=0;exitDy=0;entryX=1;entryY=0.75;entryDx=0;entryDy=0;" edge="1" parent="1" source="lmXnger4jcRCsyg33RG4-78" target="lmXnger4jcRCsyg33RG4-75">
          <mxGeometry width="50" height="50" relative="1" as="geometry">
            <mxPoint x="530" y="745" as="sourcePoint" />
            <mxPoint x="338.79999999999995" y="741.64" as="targetPoint" />
          </mxGeometry>
        </mxCell>
        <mxCell id="lmXnger4jcRCsyg33RG4-81" value="Получение доступа в систему" style="edgeLabel;html=1;align=center;verticalAlign=middle;resizable=0;points=[];" vertex="1" connectable="0" parent="lmXnger4jcRCsyg33RG4-80">
          <mxGeometry x="0.0075" relative="1" as="geometry">
            <mxPoint as="offset" />
          </mxGeometry>
        </mxCell>
        <mxCell id="lmXnger4jcRCsyg33RG4-84" value="" style="edgeStyle=orthogonalEdgeStyle;rounded=0;orthogonalLoop=1;jettySize=auto;html=1;exitX=1;exitY=0.25;exitDx=0;exitDy=0;entryX=0;entryY=0.25;entryDx=0;entryDy=0;" edge="1" parent="1" source="lmXnger4jcRCsyg33RG4-82" target="lmXnger4jcRCsyg33RG4-83">
          <mxGeometry relative="1" as="geometry">
            <mxPoint x="921" y="787" as="sourcePoint" />
            <mxPoint x="1071" y="785" as="targetPoint" />
          </mxGeometry>
        </mxCell>
        <mxCell id="lmXnger4jcRCsyg33RG4-85" value="Критерии поиска" style="edgeLabel;html=1;align=center;verticalAlign=middle;resizable=0;points=[];" vertex="1" connectable="0" parent="lmXnger4jcRCsyg33RG4-84">
          <mxGeometry x="-0.0232" relative="1" as="geometry">
            <mxPoint as="offset" />
          </mxGeometry>
        </mxCell>
        <mxCell id="lmXnger4jcRCsyg33RG4-82" value="&lt;font style=&quot;vertical-align: inherit;&quot;&gt;&lt;font style=&quot;vertical-align: inherit;&quot;&gt;Пользователь&lt;/font&gt;&lt;/font&gt;" style="whiteSpace=wrap;html=1;align=center;" vertex="1" parent="1">
          <mxGeometry x="771" y="770" width="150" height="60" as="geometry" />
        </mxCell>
        <mxCell id="lmXnger4jcRCsyg33RG4-83" value="Фильтрация и поиск контента" style="shape=process;whiteSpace=wrap;html=1;backgroundOutline=1;" vertex="1" parent="1">
          <mxGeometry x="1081" y="770" width="120" height="60" as="geometry" />
        </mxCell>
        <mxCell id="lmXnger4jcRCsyg33RG4-86" value="" style="endArrow=classic;html=1;rounded=0;exitX=0;exitY=0.75;exitDx=0;exitDy=0;entryX=1;entryY=0.75;entryDx=0;entryDy=0;" edge="1" parent="1" source="lmXnger4jcRCsyg33RG4-83" target="lmXnger4jcRCsyg33RG4-82">
          <mxGeometry width="50" height="50" relative="1" as="geometry">
            <mxPoint x="1061" y="817" as="sourcePoint" />
            <mxPoint x="931" y="817" as="targetPoint" />
          </mxGeometry>
        </mxCell>
        <mxCell id="lmXnger4jcRCsyg33RG4-87" value="Желаемые контент" style="edgeLabel;html=1;align=center;verticalAlign=middle;resizable=0;points=[];" vertex="1" connectable="0" parent="lmXnger4jcRCsyg33RG4-86">
          <mxGeometry x="0.02" y="1" relative="1" as="geometry">
            <mxPoint y="-1" as="offset" />
          </mxGeometry>
        </mxCell>
        <mxCell id="lmXnger4jcRCsyg33RG4-88" value="" style="edgeStyle=orthogonalEdgeStyle;rounded=0;orthogonalLoop=1;jettySize=auto;html=1;exitX=1;exitY=0.25;exitDx=0;exitDy=0;entryX=0;entryY=0.25;entryDx=0;entryDy=0;" edge="1" parent="1" source="lmXnger4jcRCsyg33RG4-90" target="lmXnger4jcRCsyg33RG4-91">
          <mxGeometry relative="1" as="geometry">
            <mxPoint x="1431" y="787" as="sourcePoint" />
            <mxPoint x="1581" y="785" as="targetPoint" />
          </mxGeometry>
        </mxCell>
        <mxCell id="lmXnger4jcRCsyg33RG4-89" value="Данные для подсчетов" style="edgeLabel;html=1;align=center;verticalAlign=middle;resizable=0;points=[];" vertex="1" connectable="0" parent="lmXnger4jcRCsyg33RG4-88">
          <mxGeometry x="-0.0232" relative="1" as="geometry">
            <mxPoint as="offset" />
          </mxGeometry>
        </mxCell>
        <mxCell id="lmXnger4jcRCsyg33RG4-90" value="&lt;font style=&quot;vertical-align: inherit;&quot;&gt;&lt;font style=&quot;vertical-align: inherit;&quot;&gt;Пользователь&lt;/font&gt;&lt;/font&gt;" style="whiteSpace=wrap;html=1;align=center;" vertex="1" parent="1">
          <mxGeometry x="1281" y="770" width="150" height="60" as="geometry" />
        </mxCell>
        <mxCell id="lmXnger4jcRCsyg33RG4-91" value="Подсчеты на медицинском калькуляторе" style="shape=process;whiteSpace=wrap;html=1;backgroundOutline=1;" vertex="1" parent="1">
          <mxGeometry x="1591" y="770" width="120" height="60" as="geometry" />
        </mxCell>
        <mxCell id="lmXnger4jcRCsyg33RG4-92" value="" style="endArrow=classic;html=1;rounded=0;exitX=0;exitY=0.75;exitDx=0;exitDy=0;entryX=1;entryY=0.75;entryDx=0;entryDy=0;" edge="1" parent="1" source="lmXnger4jcRCsyg33RG4-91" target="lmXnger4jcRCsyg33RG4-90">
          <mxGeometry width="50" height="50" relative="1" as="geometry">
            <mxPoint x="1571" y="817" as="sourcePoint" />
            <mxPoint x="1441" y="817" as="targetPoint" />
          </mxGeometry>
        </mxCell>
        <mxCell id="lmXnger4jcRCsyg33RG4-93" value="Результаты подсчетов" style="edgeLabel;html=1;align=center;verticalAlign=middle;resizable=0;points=[];" vertex="1" connectable="0" parent="lmXnger4jcRCsyg33RG4-92">
          <mxGeometry x="0.02" y="1" relative="1" as="geometry">
            <mxPoint y="-1" as="offset" />
          </mxGeometry>
        </mxCell>
        <mxCell id="lmXnger4jcRCsyg33RG4-95" value="" style="edgeStyle=orthogonalEdgeStyle;rounded=0;orthogonalLoop=1;jettySize=auto;html=1;" edge="1" parent="1" source="lmXnger4jcRCsyg33RG4-94" target="lmXnger4jcRCsyg33RG4-69">
          <mxGeometry relative="1" as="geometry" />
        </mxCell>
        <mxCell id="lmXnger4jcRCsyg33RG4-96" value="Выбор понравившегося" style="edgeLabel;html=1;align=center;verticalAlign=middle;resizable=0;points=[];" vertex="1" connectable="0" parent="lmXnger4jcRCsyg33RG4-95">
          <mxGeometry x="-0.002" y="1" relative="1" as="geometry">
            <mxPoint as="offset" />
          </mxGeometry>
        </mxCell>
        <mxCell id="lmXnger4jcRCsyg33RG4-94" value="Фильтрация, поиск и выбор контента" style="shape=process;whiteSpace=wrap;html=1;backgroundOutline=1;" vertex="1" parent="1">
          <mxGeometry x="1181" y="470" width="120" height="60" as="geometry" />
        </mxCell>
        <mxCell id="lmXnger4jcRCsyg33RG4-97" value="" style="endArrow=classic;html=1;rounded=0;edgeStyle=orthogonalEdgeStyle;" edge="1" parent="1" source="lmXnger4jcRCsyg33RG4-70" target="lmXnger4jcRCsyg33RG4-66">
          <mxGeometry width="50" height="50" relative="1" as="geometry">
            <mxPoint x="1360" y="650" as="sourcePoint" />
            <mxPoint x="840" y="630" as="targetPoint" />
          </mxGeometry>
        </mxCell>
        <mxCell id="lmXnger4jcRCsyg33RG4-98" value="Отображение во вкладке Избранное" style="edgeLabel;html=1;align=center;verticalAlign=middle;resizable=0;points=[];" vertex="1" connectable="0" parent="lmXnger4jcRCsyg33RG4-97">
          <mxGeometry x="-0.1374" y="1" relative="1" as="geometry">
            <mxPoint y="-2" as="offset" />
          </mxGeometry>
        </mxCell>
        <mxCell id="lmXnger4jcRCsyg33RG4-100" value="" style="edgeStyle=orthogonalEdgeStyle;rounded=0;orthogonalLoop=1;jettySize=auto;html=1;" edge="1" parent="1" source="lmXnger4jcRCsyg33RG4-102" target="lmXnger4jcRCsyg33RG4-105">
          <mxGeometry relative="1" as="geometry" />
        </mxCell>
        <mxCell id="lmXnger4jcRCsyg33RG4-101" value="Данные для регистрации" style="edgeLabel;html=1;align=center;verticalAlign=middle;resizable=0;points=[];" vertex="1" connectable="0" parent="lmXnger4jcRCsyg33RG4-100">
          <mxGeometry x="-0.0292" y="1" relative="1" as="geometry">
            <mxPoint as="offset" />
          </mxGeometry>
        </mxCell>
        <mxCell id="lmXnger4jcRCsyg33RG4-102" value="&lt;font style=&quot;vertical-align: inherit;&quot;&gt;&lt;font style=&quot;vertical-align: inherit;&quot;&gt;Модератор&lt;/font&gt;&lt;/font&gt;" style="whiteSpace=wrap;html=1;align=center;" vertex="1" parent="1">
          <mxGeometry x="220" y="950" width="150" height="60" as="geometry" />
        </mxCell>
        <mxCell id="lmXnger4jcRCsyg33RG4-103" value="" style="edgeStyle=orthogonalEdgeStyle;rounded=0;orthogonalLoop=1;jettySize=auto;html=1;" edge="1" parent="1" source="lmXnger4jcRCsyg33RG4-105" target="lmXnger4jcRCsyg33RG4-106">
          <mxGeometry relative="1" as="geometry" />
        </mxCell>
        <mxCell id="lmXnger4jcRCsyg33RG4-104" value="Проверка и сохранение данных" style="edgeLabel;html=1;align=center;verticalAlign=middle;resizable=0;points=[];" vertex="1" connectable="0" parent="lmXnger4jcRCsyg33RG4-103">
          <mxGeometry x="-0.0858" relative="1" as="geometry">
            <mxPoint as="offset" />
          </mxGeometry>
        </mxCell>
        <mxCell id="lmXnger4jcRCsyg33RG4-105" value="Регистрация&lt;br&gt;Модератора" style="shape=process;whiteSpace=wrap;html=1;backgroundOutline=1;" vertex="1" parent="1">
          <mxGeometry x="560" y="950" width="160" height="60" as="geometry" />
        </mxCell>
        <mxCell id="lmXnger4jcRCsyg33RG4-106" value="База данных зарегистрированных Модераторов" style="shape=partialRectangle;whiteSpace=wrap;html=1;left=0;right=0;fillColor=none;" vertex="1" parent="1">
          <mxGeometry x="580" y="1065" width="120" height="60" as="geometry" />
        </mxCell>
        <mxCell id="lmXnger4jcRCsyg33RG4-107" value="" style="endArrow=classic;html=1;rounded=0;exitX=0;exitY=0.75;exitDx=0;exitDy=0;entryX=0.992;entryY=0.694;entryDx=0;entryDy=0;entryPerimeter=0;" edge="1" parent="1">
          <mxGeometry width="50" height="50" relative="1" as="geometry">
            <mxPoint x="560" y="995" as="sourcePoint" />
            <mxPoint x="368.79999999999995" y="991.64" as="targetPoint" />
          </mxGeometry>
        </mxCell>
        <mxCell id="lmXnger4jcRCsyg33RG4-108" value="Получение доступа в систему" style="edgeLabel;html=1;align=center;verticalAlign=middle;resizable=0;points=[];" vertex="1" connectable="0" parent="lmXnger4jcRCsyg33RG4-107">
          <mxGeometry x="0.0075" relative="1" as="geometry">
            <mxPoint as="offset" />
          </mxGeometry>
        </mxCell>
        <mxCell id="lmXnger4jcRCsyg33RG4-109" value="" style="edgeStyle=orthogonalEdgeStyle;rounded=0;orthogonalLoop=1;jettySize=auto;html=1;" edge="1" parent="1" source="lmXnger4jcRCsyg33RG4-111" target="lmXnger4jcRCsyg33RG4-114">
          <mxGeometry relative="1" as="geometry" />
        </mxCell>
        <mxCell id="lmXnger4jcRCsyg33RG4-110" value="Данные для входа" style="edgeLabel;html=1;align=center;verticalAlign=middle;resizable=0;points=[];" vertex="1" connectable="0" parent="lmXnger4jcRCsyg33RG4-109">
          <mxGeometry x="-0.0292" y="1" relative="1" as="geometry">
            <mxPoint as="offset" />
          </mxGeometry>
        </mxCell>
        <mxCell id="lmXnger4jcRCsyg33RG4-111" value="&lt;font style=&quot;vertical-align: inherit;&quot;&gt;&lt;font style=&quot;vertical-align: inherit;&quot;&gt;Модератор&lt;/font&gt;&lt;/font&gt;" style="whiteSpace=wrap;html=1;align=center;" vertex="1" parent="1">
          <mxGeometry x="180" y="1180" width="150" height="60" as="geometry" />
        </mxCell>
        <mxCell id="lmXnger4jcRCsyg33RG4-112" value="" style="edgeStyle=orthogonalEdgeStyle;rounded=0;orthogonalLoop=1;jettySize=auto;html=1;" edge="1" parent="1" source="lmXnger4jcRCsyg33RG4-114" target="lmXnger4jcRCsyg33RG4-115">
          <mxGeometry relative="1" as="geometry" />
        </mxCell>
        <mxCell id="lmXnger4jcRCsyg33RG4-113" value="Валидация данных" style="edgeLabel;html=1;align=center;verticalAlign=middle;resizable=0;points=[];" vertex="1" connectable="0" parent="lmXnger4jcRCsyg33RG4-112">
          <mxGeometry x="-0.0858" relative="1" as="geometry">
            <mxPoint as="offset" />
          </mxGeometry>
        </mxCell>
        <mxCell id="lmXnger4jcRCsyg33RG4-114" value="Вход Модератора" style="shape=process;whiteSpace=wrap;html=1;backgroundOutline=1;" vertex="1" parent="1">
          <mxGeometry x="560" y="1180" width="160" height="60" as="geometry" />
        </mxCell>
        <mxCell id="lmXnger4jcRCsyg33RG4-115" value="База данных&amp;nbsp;" style="shape=partialRectangle;whiteSpace=wrap;html=1;left=0;right=0;fillColor=none;" vertex="1" parent="1">
          <mxGeometry x="580" y="1310" width="120" height="60" as="geometry" />
        </mxCell>
        <mxCell id="lmXnger4jcRCsyg33RG4-116" value="" style="endArrow=classic;html=1;rounded=0;exitX=0;exitY=0.75;exitDx=0;exitDy=0;entryX=1;entryY=0.75;entryDx=0;entryDy=0;" edge="1" parent="1" source="lmXnger4jcRCsyg33RG4-114" target="lmXnger4jcRCsyg33RG4-111">
          <mxGeometry width="50" height="50" relative="1" as="geometry">
            <mxPoint x="520" y="1225" as="sourcePoint" />
            <mxPoint x="328.79999999999995" y="1221.6399999999999" as="targetPoint" />
          </mxGeometry>
        </mxCell>
        <mxCell id="lmXnger4jcRCsyg33RG4-117" value="Получение доступа в систему" style="edgeLabel;html=1;align=center;verticalAlign=middle;resizable=0;points=[];" vertex="1" connectable="0" parent="lmXnger4jcRCsyg33RG4-116">
          <mxGeometry x="0.0075" relative="1" as="geometry">
            <mxPoint as="offset" />
          </mxGeometry>
        </mxCell>
        <mxCell id="lmXnger4jcRCsyg33RG4-120" value="" style="edgeStyle=orthogonalEdgeStyle;rounded=0;orthogonalLoop=1;jettySize=auto;html=1;" edge="1" parent="1" source="lmXnger4jcRCsyg33RG4-118" target="lmXnger4jcRCsyg33RG4-119">
          <mxGeometry relative="1" as="geometry" />
        </mxCell>
        <mxCell id="lmXnger4jcRCsyg33RG4-121" value="Вводимые изменения" style="edgeLabel;html=1;align=center;verticalAlign=middle;resizable=0;points=[];" vertex="1" connectable="0" parent="lmXnger4jcRCsyg33RG4-120">
          <mxGeometry x="-0.0175" relative="1" as="geometry">
            <mxPoint as="offset" />
          </mxGeometry>
        </mxCell>
        <mxCell id="lmXnger4jcRCsyg33RG4-118" value="&lt;font style=&quot;vertical-align: inherit;&quot;&gt;&lt;font style=&quot;vertical-align: inherit;&quot;&gt;Модератор&lt;/font&gt;&lt;/font&gt;" style="whiteSpace=wrap;html=1;align=center;" vertex="1" parent="1">
          <mxGeometry x="771" y="950" width="150" height="60" as="geometry" />
        </mxCell>
        <mxCell id="lmXnger4jcRCsyg33RG4-123" value="" style="edgeStyle=orthogonalEdgeStyle;rounded=0;orthogonalLoop=1;jettySize=auto;html=1;" edge="1" parent="1" source="lmXnger4jcRCsyg33RG4-119" target="lmXnger4jcRCsyg33RG4-122">
          <mxGeometry relative="1" as="geometry" />
        </mxCell>
        <mxCell id="lmXnger4jcRCsyg33RG4-124" value="Измененное содержимое" style="edgeLabel;html=1;align=center;verticalAlign=middle;resizable=0;points=[];" vertex="1" connectable="0" parent="lmXnger4jcRCsyg33RG4-123">
          <mxGeometry x="-0.0133" relative="1" as="geometry">
            <mxPoint as="offset" />
          </mxGeometry>
        </mxCell>
        <mxCell id="lmXnger4jcRCsyg33RG4-119" value="Редактирование контента" style="shape=process;whiteSpace=wrap;html=1;backgroundOutline=1;" vertex="1" parent="1">
          <mxGeometry x="1070" y="950" width="120" height="60" as="geometry" />
        </mxCell>
        <mxCell id="lmXnger4jcRCsyg33RG4-122" value="База данных&lt;br&gt;контента (Новостей, Статей и т. д.)&amp;nbsp;" style="shape=partialRectangle;whiteSpace=wrap;html=1;left=0;right=0;fillColor=none;" vertex="1" parent="1">
          <mxGeometry x="1070" y="1070" width="120" height="60" as="geometry" />
        </mxCell>
      </root>
    </mxGraphModel>
  </diagram>
</mxfile>
